<?xml version="1.0" encoding="UTF-8" standalone="no"?>
<!-- Uploaded to: SVG Repo, www.svgrepo.com, Generator: SVG Repo Mixer Tools -->

<svg
   fill="#000000"
   height="827.47083"
   width="800"
   version="1.1"
   id="Capa_1"
   viewBox="0 0 470 486.13911"
   xml:space="preserve"
   sodipodi:docname="koruna.svg"
   inkscape:version="1.3.2 (091e20e, 2023-11-25, custom)"
   xmlns:inkscape="http://www.inkscape.org/namespaces/inkscape"
   xmlns:sodipodi="http://sodipodi.sourceforge.net/DTD/sodipodi-0.dtd"
   xmlns:xlink="http://www.w3.org/1999/xlink"
   xmlns="http://www.w3.org/2000/svg"
   xmlns:svg="http://www.w3.org/2000/svg"><sodipodi:namedview
   id="namedview1"
   pagecolor="#ffffff"
   bordercolor="#000000"
   borderopacity="0.25"
   inkscape:showpageshadow="2"
   inkscape:pageopacity="0.0"
   inkscape:pagecheckerboard="0"
   inkscape:deskcolor="#d1d1d1"
   inkscape:zoom="0.49125599"
   inkscape:cx="413.22651"
   inkscape:cy="347.06956"
   inkscape:window-width="1920"
   inkscape:window-height="1009"
   inkscape:window-x="1912"
   inkscape:window-y="163"
   inkscape:window-maximized="1"
   inkscape:current-layer="Capa_1" /><defs
   id="defs7"><linearGradient
     id="linearGradient26-1"><stop
       style="stop-color:#228672;stop-opacity:1;"
       offset="0.39613527"
       id="stop3" /><stop
       style="stop-color:#18534a;stop-opacity:1;"
       offset="1"
       id="stop4" /></linearGradient><linearGradient
     id="linearGradient26"
     inkscape:swatch="gradient"><stop
       style="stop-color:#228672;stop-opacity:1;"
       offset="0.18599033"
       id="stop1" /><stop
       style="stop-color:#18534a;stop-opacity:1;"
       offset="1"
       id="stop2" /></linearGradient><linearGradient
     id="linearGradient26-2"
     inkscape:swatch="gradient"><stop
       style="stop-color:#228672;stop-opacity:1;"
       offset="0.18599033"
       id="stop26" /><stop
       style="stop-color:#18534a;stop-opacity:1;"
       offset="1"
       id="stop27" /></linearGradient><linearGradient
     id="linearGradient18"><stop
       style="stop-color:#bc9135;stop-opacity:1;"
       offset="0"
       id="stop18" /><stop
       style="stop-color:#8a6943;stop-opacity:1;"
       offset="1"
       id="stop19" /></linearGradient><radialGradient
     xlink:href="#linearGradient18"
     id="radialGradient19"
     cx="234.99361"
     cy="235.09909"
     fx="234.99361"
     fy="235.09909"
     r="219.46739"
     gradientTransform="matrix(1,0,0,1.0005388,0,-0.12666944)"
     gradientUnits="userSpaceOnUse" /><radialGradient
     xlink:href="#linearGradient26"
     id="radialGradient27"
     cx="237.89088"
     cy="353.83728"
     fx="237.89088"
     fy="353.83728"
     r="231.672"
     gradientTransform="matrix(1,0,0,0.57107398,0,151.77001)"
     gradientUnits="userSpaceOnUse" /><radialGradient
     inkscape:collect="always"
     xlink:href="#linearGradient26-1"
     id="radialGradient4"
     cx="237.65721"
     cy="351.0202"
     fx="237.65721"
     fy="351.0202"
     r="232.06772"
     gradientTransform="matrix(1,0,0,0.57889329,0,147.81696)"
     gradientUnits="userSpaceOnUse" /><filter
     id="mask-powermask-path-effect12_inverse"
     inkscape:label="filtermask-powermask-path-effect12"
     style="color-interpolation-filters:sRGB"
     height="100"
     width="100"
     x="-50"
     y="-50"><feColorMatrix
       id="mask-powermask-path-effect12_primitive1"
       values="1"
       type="saturate"
       result="fbSourceGraphic" /><feColorMatrix
       id="mask-powermask-path-effect12_primitive2"
       values="-1 0 0 0 1 0 -1 0 0 1 0 0 -1 0 1 0 0 0 1 0 "
       in="fbSourceGraphic" /></filter></defs>
<g
   id="g7">
	<path
   d="M 401.17,68.83 C 356.784,24.444 297.771,0 235,0 172.229,0 113.216,24.444 68.83,68.83 24.444,113.215 0,172.229 0,235 0,297.771 24.444,356.785 68.83,401.17 113.216,445.556 172.229,470 235,470 297.771,470 356.784,445.556 401.17,401.17 445.556,356.785 470,297.771 470,235 470,172.229 445.556,113.215 401.17,68.83 Z M 235,455 C 113.691,455 15,356.309 15,235 15,113.691 113.691,15 235,15 c 121.309,0 220,98.691 220,220 0,121.309 -98.691,220 -220,220 z"
   id="path1" />
	<path
   d="M 235,25 C 119.206,25 25,119.206 25,235 c 0,53.381 20.05,104.258 56.455,143.259 36.223,38.804 85.231,62.303 137.997,66.167 4.127,0.308 7.726,-2.801 8.028,-6.932 0.302,-4.131 -2.802,-7.725 -6.933,-8.028 C 119.306,422.053 40,336.633 40,235 40,127.477 127.477,40 235,40 c 107.523,0 195,87.477 195,195 0,101.633 -79.306,187.053 -180.548,194.466 -4.131,0.303 -7.234,3.896 -6.933,8.028 0.289,3.945 3.579,6.953 7.473,6.953 0.184,0 0.369,-0.007 0.556,-0.021 52.766,-3.864 101.774,-27.363 137.997,-66.167 C 424.95,339.258 445,288.381 445,235 445,119.206 350.794,25 235,25 Z"
   id="path2" />
	<path
   d="m 202.166,197.63 c -4.143,0 -7.5,3.358 -7.5,7.5 0,4.142 3.357,7.5 7.5,7.5 h 65.668 c 4.143,0 7.5,-3.358 7.5,-7.5 0,-4.142 -3.357,-7.5 -7.5,-7.5 h -2.5 V 69.513 c 0,-2.188 -0.955,-4.267 -2.616,-5.692 -1.661,-1.425 -3.86,-2.053 -6.023,-1.721 l -54.771,8.417 c -4.094,0.629 -6.902,4.458 -6.273,8.552 0.63,4.095 4.466,6.9 8.553,6.274 l 0.463,-0.071 V 197.63 Z m 17.5,-114.663 30.668,-4.713 V 197.63 h -30.668 z"
   id="path3" />
	<path
   d="m 135.637,376 c 0.632,3.584 3.746,6.198 7.386,6.198 h 183.955 c 3.64,0 6.754,-2.613 7.386,-6.198 l 18.871,-107.02 c 0.72,-4.079 -2.004,-7.969 -6.083,-8.688 -2.404,-0.424 -4.853,-0.639 -7.275,-0.639 -20.162,0 -37.422,14.483 -41.04,34.438 -2.445,13.489 -7.188,39.437 -7.188,39.44 -0.345,1.89 -2.568,3.745 -4.489,3.745 h -22.197 c -1.921,0 -4.144,-1.854 -4.488,-3.744 l -4.122,-22.615 28.012,-12.48 c 2.705,-1.205 4.447,-3.889 4.447,-6.851 0,-11.375 -7.612,-21.006 -18.01,-24.068 -2.451,-18.548 -15.307,-34.168 -33.525,-39.967 -1.48,-0.471 -3.07,-0.471 -4.549,0 -18.219,5.798 -31.074,21.418 -33.525,39.966 -10.397,3.062 -18.01,12.692 -18.01,24.068 0,2.961 1.742,5.646 4.447,6.851 l 28.012,12.48 -4.123,22.616 c -0.344,1.889 -2.566,3.744 -4.487,3.744 h -22.197 c -1.921,0 -4.145,-1.855 -4.489,-3.748 0,0 -4.743,-25.949 -7.188,-39.438 -3.618,-19.954 -20.878,-34.437 -41.04,-34.437 -2.423,0 -4.871,0.215 -7.275,0.639 -4.079,0.72 -6.803,4.609 -6.083,8.688 z m 20.767,-79.234 c 2.447,13.496 7.192,39.459 7.192,39.457 1.642,9.002 10.096,16.053 19.245,16.053 h 22.197 c 9.15,0 17.604,-7.052 19.244,-16.054 l 5.18,-28.413 c 0.621,-3.403 -1.166,-6.789 -4.325,-8.196 l -27.929,-12.442 c 1.641,-3.354 5.088,-5.668 9.065,-5.668 4.143,0 7.5,-3.358 7.5,-7.5 0,-13.95 8.435,-26.258 21.226,-31.345 12.791,5.086 21.226,17.395 21.226,31.345 0,4.142 3.357,7.5 7.5,7.5 3.978,0 7.425,2.315 9.065,5.668 l -27.929,12.442 c -3.159,1.408 -4.946,4.793 -4.325,8.196 l 5.179,28.413 c 1.641,9.002 10.095,16.054 19.245,16.054 h 22.197 c 9.149,0 17.604,-7.051 19.245,-16.05 0,0 4.745,-25.963 7.192,-39.459 2.147,-11.842 11.749,-20.683 23.38,-21.956 l -16.291,92.387 H 149.315 l -16.291,-92.387 c 11.631,1.272 21.233,10.113 23.38,21.955 z"
   id="path4" />
	<path
   d="m 243,274.5 c 0,-4.411 -3.589,-8 -8,-8 -4.411,0 -8,3.589 -8,8 0,4.411 3.589,8 8,8 4.411,0 8,-3.589 8,-8 z"
   id="path5" />
	<path
   d="m 167.075,95.644 c 3.723,-1.818 5.266,-6.309 3.448,-10.031 -1.818,-3.722 -6.311,-5.265 -10.03,-3.448 C 132.292,95.938 108.451,117.231 91.55,143.744 74.181,170.989 65,202.544 65,235 c 0,37.223 11.815,72.573 34.168,102.229 1.475,1.956 3.721,2.986 5.995,2.986 1.571,0 3.156,-0.492 4.509,-1.511 3.308,-2.493 3.968,-7.196 1.475,-10.503 C 90.771,301.167 80,268.938 80,235 80,175.273 113.365,121.875 167.075,95.644 Z"
   id="path6" />
	<path
   d="m 360.329,338.703 c 1.353,1.019 2.937,1.511 4.509,1.511 2.274,0 4.521,-1.03 5.995,-2.986 C 393.186,307.572 405,272.222 405,235 c 0,-32.456 -9.181,-64.011 -26.55,-91.256 -16.901,-26.512 -40.742,-47.806 -68.943,-61.579 -3.724,-1.819 -8.212,-0.273 -10.03,3.448 -1.817,3.722 -0.274,8.213 3.448,10.031 C 356.635,121.875 390,175.273 390,235 c 0,33.938 -10.77,66.166 -31.146,93.199 -2.493,3.308 -1.833,8.01 1.475,10.504 z"
   id="path7" />
</g>
<path
   style="fill:url(#radialGradient19);fill-opacity:1;stroke-width:0.578106"
   d="M 223.14883,454.36832 C 157.09575,450.72961 96.398439,417.51464 57.038893,363.46912 34.600664,332.65866 20.629253,296.16589 16.451144,257.45554 c -1.233227,-11.4259 -1.233227,-33.48518 0,-44.91108 C 22.020609,160.94313 44.273289,114.92664 81.273334,78.498137 117.00934,43.31416 162.31021,21.900188 212.54446,16.445554 c 11.44553,-1.242799 33.46555,-1.242799 44.91108,0 62.8301,6.822341 118.24823,38.926404 155.50557,90.085326 22.44077,30.81395 36.43718,67.37707 40.58216,106.01358 1.22364,11.40599 1.22364,33.50509 0,44.91108 -7.4921,69.83605 -47.03321,131.18113 -107.68061,167.05842 -36.3574,21.50801 -80.27411,32.19226 -122.71383,29.85436 z m 0.98362,-10.93778 c 5.62864,-3.43198 4.28456,-12.24695 -2.11229,-13.85328 -1.128,-0.28326 -4.00202,-0.6812 -6.3867,-0.88432 -11.68402,-0.99521 -27.52477,-4.31592 -40.0924,-8.40461 C 102.06299,396.38334 49.358732,331.24478 41.292095,254.36654 c -1.155741,-11.01466 -0.844618,-34.23405 0.596456,-44.51414 4.945006,-35.27582 18.021098,-66.3026 39.956973,-94.80935 6.550161,-8.51227 24.575176,-26.529419 33.197526,-33.183056 28.54825,-22.029928 59.3862,-34.98137 95.38745,-40.061193 10.28825,-1.451684 38.85075,-1.451684 49.139,0 36.01591,5.081891 66.71829,17.972991 95.38745,40.050612 8.55895,6.591098 26.60254,24.634687 33.19364,33.193637 22.0769,28.66824 34.95356,59.33432 40.05309,95.38745 1.44995,10.25097 1.43293,38.80257 -0.0293,49.139 -4.38988,31.03212 -14.31928,57.31726 -31.33804,82.95818 -30.00483,45.20607 -77.98102,76.21447 -130.98056,84.65651 -3.9344,0.62669 -9.10456,1.30563 -11.48925,1.50875 -2.38468,0.20312 -5.2587,0.60106 -6.3867,0.88432 -6.39685,1.60633 -7.74093,10.4213 -2.11229,13.85328 2.26096,1.37859 5.2326,1.43457 14.58637,0.27479 47.30492,-5.86537 89.27901,-26.29805 122.87866,-59.81643 27.87001,-27.80262 46.72881,-61.15374 55.96725,-98.97614 4.20181,-17.20231 5.55257,-29.34443 5.55257,-49.91276 0,-17.01 -0.38682,-22.21004 -2.66621,-35.84256 C 431.95549,137.97016 393.36685,83.183191 338.48093,51.919871 314.23798,38.110951 287.98859,29.641984 257.83518,25.900742 249.77954,24.90125 220.26685,24.897459 212.16482,25.894867 170.30616,31.047961 134.74747,45.882252 102.90283,71.476525 63.532244,103.11957 35.972891,149.97639 27.805885,199.15744 c -2.288036,13.77836 -2.658403,18.8279 -2.65014,36.1316 0.01049,21.95446 1.66878,35.43159 6.650949,54.05289 14.033246,52.45052 48.244916,97.875 94.798466,125.8685 26.6202,16.00721 52.70851,24.74981 86.42682,28.96296 5.10591,0.638 9.29564,0.35761 11.10047,-0.74286 z m 104.8426,-61.30219 c 1.13093,-0.31417 2.7846,-1.33147 3.67483,-2.26067 1.57384,-1.64273 1.88877,-3.21878 11.39112,-57.00606 10.64888,-60.27708 10.42075,-58.31014 7.06886,-60.94674 -2.46364,-1.9379 -5.73524,-2.49486 -12.91798,-2.19916 -11.47322,0.47233 -19.77446,4.06021 -27.80237,12.01647 -4.88368,4.84009 -8.50547,10.69087 -10.36411,16.74259 -0.93624,3.04842 -8.66009,43.36692 -8.66009,45.2057 0,0.28593 -0.68835,1.15782 -1.52968,1.93753 -1.5198,1.40851 -1.60582,1.41766 -13.32514,1.41766 -12.43081,0 -14.7074,-0.40673 -15.45465,-2.7611 -0.18145,-0.57171 -1.10815,-5.32225 -2.05932,-10.55678 -0.95117,-5.23451 -1.87435,-10.19597 -2.05149,-11.02546 -0.31453,-1.47285 0.007,-1.65421 13.725,-7.74456 15.46848,-6.86744 15.77077,-7.03091 17.30602,-9.35935 2.01723,-3.05942 1.06903,-10.43322 -2.08733,-16.2325 -2.73786,-5.03034 -8.86156,-10.36801 -13.08651,-11.40673 -1.35494,-0.33312 -1.64093,-0.90891 -2.80113,-5.63972 -1.58165,-6.44922 -3.25169,-10.31057 -6.70781,-15.50932 -5.12281,-7.7058 -12.62274,-14.00556 -21.06695,-17.69571 -5.77753,-2.5248 -8.69512,-2.51548 -14.56309,0.0465 -13.95149,6.09129 -24.66192,19.10678 -27.90185,33.90677 l -0.95345,4.35536 -2.86717,1.01833 c -3.61892,1.28533 -9.54781,6.73235 -11.76799,10.81156 -4.14302,7.61209 -4.2067,16.03909 -0.1408,18.6341 0.68801,0.43912 7.57116,3.61721 15.29588,7.06242 13.68064,6.10156 14.03665,6.30291 13.72499,7.76253 -0.17597,0.82417 -1.09819,5.78128 -2.04936,11.01579 -0.95117,5.23452 -1.87787,9.98507 -2.05932,10.55678 -0.74725,2.35437 -3.02384,2.7611 -15.45465,2.7611 -11.71932,0 -11.80534,-0.009 -13.32514,-1.41766 -0.84133,-0.77971 -1.52968,-1.63423 -1.52968,-1.89891 0,-1.89365 -7.72794,-42.33021 -8.65423,-45.2834 -1.90553,-6.07519 -5.51936,-11.8962 -10.36997,-16.70352 -8.02791,-7.95626 -16.32915,-11.54414 -27.80237,-12.01646 -7.18274,-0.2957 -10.45434,0.26126 -12.91798,2.19916 -3.35189,2.6366 -3.58002,0.66965 7.06886,60.94674 9.52531,53.91727 9.81375,55.35965 11.40227,57.0177 0.89636,0.93559 2.41996,1.93088 3.38578,2.21175 2.50033,0.72713 185.61422,0.76339 188.228,0.0373 z M 109.31261,339.18621 c 2.44199,-1.64565 3.39856,-3.49165 3.40949,-6.57967 0.007,-2.06352 -0.67858,-3.42817 -4.82171,-9.59324 -14.576497,-21.69015 -22.237926,-41.25594 -26.201095,-66.91244 -1.406516,-9.10542 -1.414929,-33.317 -0.01475,-42.37815 2.567105,-16.61258 7.229328,-31.93516 13.930436,-45.78298 8.010699,-16.55408 16.840019,-28.97984 29.803399,-41.94322 11.58914,-11.58915 23.43516,-20.32 38.46915,-28.352853 2.9682,-1.585962 5.7755,-3.46162 6.23843,-4.168148 3.16837,-4.83553 0.46992,-11.249221 -5.17877,-12.308924 -1.81846,-0.341143 -3.02473,0.07864 -9.24507,3.217321 -13.11532,6.617764 -27.32368,16.863934 -38.86398,28.026234 -27.549588,26.64723 -44.866909,60.56327 -50.466771,98.8394 -1.039005,7.10183 -1.281161,11.40129 -1.305096,23.17235 -0.03848,18.91269 1.534574,31.10028 6.081154,47.11562 5.22281,18.39737 15.132948,38.79936 25.976406,53.4776 4.058797,5.4942 8.148597,6.89377 12.188757,4.1711 z m 259.32985,0.19529 c 3.11793,-1.90117 10.63562,-12.90175 16.74789,-24.50711 10.12399,-19.22238 15.62466,-36.75334 18.80408,-59.92974 0.4692,-3.4202 0.73995,-11.16222 0.71771,-20.52276 -0.0296,-12.45076 -0.25461,-16.46959 -1.31103,-23.41328 -3.05877,-20.10503 -8.31866,-36.49048 -17.36124,-54.08328 -8.35506,-16.25518 -17.65747,-28.95498 -30.93385,-42.23135 -13.03538,-13.03538 -26.54112,-23.010252 -41.10586,-30.359371 -6.12921,-3.0927 -7.33074,-3.508826 -9.14737,-3.168024 -5.62785,1.055791 -8.38113,7.421506 -5.26615,12.175568 0.51471,0.785546 3.85754,2.984077 7.4285,4.885615 14.30654,7.618232 26.16139,16.466232 37.93149,28.310582 23.50121,23.64945 37.73173,52.45289 43.16115,87.36079 1.45017,9.32362 1.44431,32.75168 -0.0105,42.20172 -3.94331,25.61401 -11.61927,45.2195 -26.19764,66.91244 -4.14314,6.16507 -4.82902,7.52972 -4.82172,9.59325 0.0109,3.08801 0.96751,4.93401 3.4095,6.57966 2.40912,1.62351 5.48877,1.69911 7.95506,0.19529 z M 272.32632,211.433 c 5.97041,-4.02346 3.39765,-13.0718 -3.99563,-14.05256 l -2.98013,-0.39532 v -65.3195 -65.31948 l -2.24441,-2.244409 c -1.8252,-1.825192 -2.65766,-2.244414 -4.45684,-2.244414 -3.58754,0 -55.79892,8.059061 -58.45715,9.023125 -3.4183,1.239718 -5.02644,3.946742 -4.65305,7.832626 0.37573,3.910329 2.64278,6.267967 6.43854,6.695808 l 2.67179,0.301146 v 55.637548 55.63755 l -2.98013,0.39532 c -7.39328,0.98076 -9.96604,10.0291 -3.99563,14.05256 l 1.9438,1.30993 H 235 270.38252 Z"
   id="path8" /><path
   style="display:inline;fill:#000000;fill-opacity:0.0503876;stroke-width:0.5875"
   d="m 334.14514,76.309964 c 23.12423,15.030747 39.3112,28.327186 39.8893,52.029516 0.57811,23.70234 0.57811,45.67036 -10.4059,54.34195 -10.98402,8.67159 -38.15499,12.14022 -49.139,-5.78106 -10.984,-17.92128 -31.21771,-50.29521 -23.70233,-65.90406 7.51537,-15.608858 13.29643,-28.905287 23.12423,-31.217711 9.8278,-2.312423 20.2337,-3.468635 20.2337,-3.468635 z"
   id="path23" /><path
   style="display:inline;fill:#000000;fill-opacity:0.0503876;stroke-width:0.5875"
   d="m 105.05711,255.48907 c -12.672259,-22.48303 -15.533737,-37.60799 -4.90539,-40.87825 10.62834,-3.27026 33.92895,-18.804 45.37486,-13.08104 11.44591,5.72296 34.74651,15.12496 38.83433,35.97286 4.08783,20.84791 3.67905,36.79043 -0.81756,47.00999 -4.49661,10.21956 -21.25669,28.61478 -37.19921,27.79721 -15.94252,-0.81756 -38.42555,-2.86148 -41.69581,-20.84791 -3.27026,-17.98643 0.40878,-35.97286 0.40878,-35.97286 z"
   id="path24" /><path
   style="display:inline;fill:#000000;fill-opacity:0.166667;stroke-width:0.464642"
   d="m 288.57347,416.73326 c 4.08783,-2.5569 27.79722,-17.38693 19.62157,-25.56901 -8.17565,-8.18209 -16.3513,-19.94383 -31.88504,-19.43245 -15.53374,0.51138 -29.43234,4.60242 -35.1553,15.34141 -5.72295,10.73898 -18.80399,14.31864 -2.45269,24.03487 16.3513,9.71623 30.2499,10.2276 37.60799,9.71623 7.35808,-0.51139 12.26347,-4.09105 12.26347,-4.09105 z"
   id="path25" /><path
   style="display:inline;fill:#000000;fill-opacity:0.162791;stroke-width:0.5875"
   d="m 83.82534,66.482164 c 21.96802,-17.921278 26.01476,-30.0615 39.8893,-26.014759 13.87453,4.04674 18.49938,-6.359164 31.21771,10.405904 12.71832,16.765067 19.07749,27.749078 1.15621,38.154984 -17.92128,10.4059 -32.95203,9.827794 -48.56088,21.389907 -15.608863,11.56212 -15.608863,-1.73431 -27.749081,21.96802 -12.140223,23.70234 -10.984012,38.15498 -24.280444,45.09225 -13.296433,6.93727 -19.077491,15.60886 -28.327184,11.56212 -9.249692,-4.04674 -15.030749,0.57811 -9.249692,-17.92128 5.781058,-18.49938 32.373924,-65.90406 32.373924,-65.90406 z"
   id="path26" /><path
   style="display:inline;fill:url(#radialGradient4);stroke-width:0.590199"
   d="m 5.979136,289.90119 c 1.7656679,-14.0505 4.874233,-22.19004 13.125174,-23.00761 8.250943,-0.81756 46.162426,-6.09033 51.11299,23.34201 4.950564,29.43234 -13.750851,32.53461 9.351788,54.60887 23.102632,22.07425 42.904902,35.97286 70.958092,37.60799 28.05321,1.63513 26.95236,7.52607 48.40481,21.42468 21.45245,13.8986 50.33074,32.7026 77.55884,19.62156 27.22812,-13.08104 56.27333,-10.48811 63.69917,-33.37993 7.42584,-22.89182 3.13347,-52.4644 32.83686,-60.64005 29.70339,-8.17565 47.85546,-29.43234 50.33074,-53.95929 2.47528,-24.52695 12.74622,-58.00415 30.89828,-58.82171 18.15208,-0.81757 15.30699,23.66641 15.30699,41.65284 0,17.98643 -7.42585,41.69582 -10.72622,62.13494 -3.30038,20.43913 -0.8251,39.24313 -8.25095,58.86469 -7.42584,19.62156 -13.49022,39.7895 -27.65092,37.18346 -6.66836,-1.2272 -6.29528,-10.6486 -23.62225,8.1554 -17.32699,18.80399 -20.16075,17.89438 -37.71372,27.62094 -12.92854,7.16405 -10.84949,21.87774 -34.77722,25.96557 -23.92774,4.08782 -58.27111,6.0828 -76.42318,3.6301 -18.15206,-2.45269 -58.21085,7.73643 -72.91887,1.27529 -16.54224,-7.26691 -41.25471,-7.35809 -57.7566,-18.804 C 103.22107,452.93103 103.2813,442.04071 78.528471,446.9461 53.775643,451.85149 59.634752,453.95506 40.347,453.40725 8.9978511,452.51688 12.724846,419.10653 19.492508,401.46144 25.525584,385.73161 24.906794,374.00557 22.468516,360.86366 18.74973,340.82003 5.556288,341.36787 6.6850463,330.29627 8.7169641,310.3659 4.2999908,303.26318 5.979136,289.90119 Z"
   id="path18"
   sodipodi:nodetypes="sssssssssssssssssssssssssss"
   mask="none" /><path
   style="display:inline;fill:#404d70;fill-opacity:1;stroke-width:1.0178"
   d="m 373.7817,238.92838 0.25954,-97.96318 23.91828,-3.76064 c 13.15506,-2.06836 24.94881,-3.7859 26.20834,-3.81675 l 2.29004,-0.0561 v 101.77993 101.77993 h -26.46786 -26.46787 z"
   id="path15"
   transform="scale(0.5875)" /><path
   style="display:inline;fill:#39495b;fill-opacity:1;stroke-width:1.0178"
   d="m 240.05443,546.81267 c -7.59235,-42.96385 -13.64517,-78.41152 -13.4507,-78.7726 0.62155,-1.15406 8.81597,1.12215 15.20066,4.22238 7.96341,3.86682 16.82737,13.07765 20.77346,21.58638 2.34783,5.06249 4.4382,14.3792 10.00526,44.59311 4.80744,26.0913 7.73921,39.56935 9.25235,42.53535 3.12863,6.13263 9.51569,12.155 16.22914,15.3025 l 5.74849,2.6951 h 26.46278 c 30.12449,0 31.53918,-0.30478 40.72741,-8.77419 7.35999,-6.78421 9.08629,-11.29631 13.63596,-35.6408 6.77307,-36.24161 6.50231,-34.01957 4.62691,-37.97167 -0.91299,-1.924 -2.65106,-4.13817 -3.86235,-4.92039 -1.2113,-0.78221 -12.73659,-6.11643 -25.61175,-11.85382 -12.87516,-5.73738 -23.58593,-10.60603 -23.8017,-10.81922 -0.82052,-0.81067 3.17752,-5.71644 6.11414,-7.5023 1.68671,-1.02575 5.4404,-2.17629 8.34155,-2.55676 9.57515,-1.25574 12.23438,-4.62417 13.36,-16.92305 0.83383,-9.11067 4.22963,-19.41487 8.68786,-26.36243 4.46735,-6.96175 15.83042,-17.36404 22.18337,-20.30768 l 5.31785,-2.46403 5.31785,2.46403 c 6.35295,2.94364 17.71603,13.34593 22.18337,20.30768 4.45824,6.94756 7.85404,17.25176 8.68787,26.36243 1.11792,12.21478 3.73818,15.57901 13.17418,16.91473 2.79895,0.39621 6.30808,1.33877 7.79807,2.09458 2.6093,1.32358 6.96002,6.01158 6.96002,7.49958 0,0.39666 -10.64873,5.4422 -23.66384,11.21231 -13.0151,5.77011 -24.65489,11.13575 -25.86619,11.92364 -1.2113,0.78788 -2.94936,3.0067 -3.86236,4.9307 -1.8754,3.9521 -2.14615,1.73006 4.62692,37.97167 4.54966,24.34449 6.27596,28.85659 13.63595,35.6408 9.18824,8.46941 10.60293,8.77419 40.72741,8.77419 h 26.46279 l 5.74849,-2.6951 c 6.71344,-3.1475 13.1005,-9.16987 16.22913,-15.3025 1.51314,-2.966 4.44491,-16.44405 9.25236,-42.53535 5.56705,-30.21391 7.65743,-39.53062 10.00526,-44.59311 3.94609,-8.50873 12.81005,-17.71956 20.77346,-21.58638 6.38468,-3.10023 14.57911,-5.37644 15.20066,-4.22238 0.19447,0.36108 -5.85836,35.80875 -13.4507,78.7726 l -13.80428,78.1161 H 399.99512 253.8587 Z m 166.14304,-67.98751 c 10.04903,-5.19656 8.85598,-20.08712 -1.90988,-23.83749 -14.75254,-5.13917 -24.44657,15.28937 -11.1132,23.4192 3.92719,2.39455 8.89298,2.55404 13.02308,0.41829 z"
   id="path16"
   transform="scale(0.5875)" /></svg>
