<?xml version="1.0" encoding="UTF-8" standalone="no"?>
<!-- Created with Inkscape (http://www.inkscape.org/) -->

<svg
   width="961.80402mm"
   height="254.57899mm"
   viewBox="0 0 961.804 254.579"
   version="1.1"
   id="svg1"
   xml:space="preserve"
   sodipodi:docname="plank.svg"
   inkscape:version="1.3.2 (091e20e, 2023-11-25, custom)"
   xmlns:inkscape="http://www.inkscape.org/namespaces/inkscape"
   xmlns:sodipodi="http://sodipodi.sourceforge.net/DTD/sodipodi-0.dtd"
   xmlns:xlink="http://www.w3.org/1999/xlink"
   xmlns="http://www.w3.org/2000/svg"
   xmlns:svg="http://www.w3.org/2000/svg"><sodipodi:namedview
     id="namedview1"
     pagecolor="#ffffff"
     bordercolor="#000000"
     borderopacity="0.25"
     inkscape:showpageshadow="2"
     inkscape:pageopacity="0.0"
     inkscape:pagecheckerboard="0"
     inkscape:deskcolor="#d1d1d1"
     inkscape:document-units="mm"
     inkscape:zoom="0.25404116"
     inkscape:cx="1543.0571"
     inkscape:cy="415.28704"
     inkscape:window-width="1920"
     inkscape:window-height="1009"
     inkscape:window-x="1912"
     inkscape:window-y="163"
     inkscape:window-maximized="1"
     inkscape:current-layer="svg1" /><defs
     id="defs1"><linearGradient
       id="linearGradient9"
       inkscape:collect="always"><stop
         style="stop-color:#175a4c;stop-opacity:1;"
         offset="0"
         id="stop9" /><stop
         style="stop-color:#155043;stop-opacity:1;"
         offset="1"
         id="stop10" /></linearGradient><linearGradient
       id="linearGradient1"
       inkscape:collect="always"><stop
         style="stop-color:#1a6456;stop-opacity:1;"
         offset="0"
         id="stop1" /><stop
         style="stop-color:#134b3e;stop-opacity:1;"
         offset="1"
         id="stop2" /></linearGradient><linearGradient
       id="linearGradient5"><stop
         style="stop-color:#8e521a;stop-opacity:1;"
         offset="0"
         id="stop5" /><stop
         style="stop-color:#674015;stop-opacity:1;"
         offset="1"
         id="stop6" /></linearGradient><radialGradient
       xlink:href="#linearGradient5"
       id="radialGradient6"
       cx="478.26266"
       cy="109.49611"
       fx="478.26266"
       fy="109.49611"
       r="470.40192"
       gradientTransform="matrix(1,0,0,0.21532554,0,85.918803)"
       gradientUnits="userSpaceOnUse" /><radialGradient
       inkscape:collect="always"
       xlink:href="#linearGradient1"
       id="radialGradient2"
       cx="180.91451"
       cy="223.43883"
       fx="180.91451"
       fy="223.43883"
       r="198.26196"
       gradientTransform="matrix(1,0,0,0.23176756,17.776433,173.70409)"
       gradientUnits="userSpaceOnUse" /><radialGradient
       inkscape:collect="always"
       xlink:href="#linearGradient9"
       id="radialGradient10"
       cx="913.73529"
       cy="33.977314"
       fx="913.73529"
       fy="33.977314"
       r="46.36734"
       gradientTransform="matrix(1,0,0,0.6966802,1.1046753,9.9377669)"
       gradientUnits="userSpaceOnUse" /></defs><g
     id="layer1"
     transform="translate(9.9156831,-6.1554363)"><path
       style="fill:url(#radialGradient6);fill-opacity:1;stroke-width:0.264583"
       d="m 21.633945,10.36492 c 31.554721,-6.9000003 206.717185,5.134025 238.748335,3.067499 32.03117,-2.066526 395.89904,-8.1283846 421.57133,-3.099789 25.05661,4.907999 204.19813,5.333616 214.91871,4.133052 15.44701,-1.729863 25.30591,-6.9022793 37.32662,-3.487263 5.08564,1.444803 10.09276,4.934538 12.65748,9.557683 3.29198,5.934118 1.80819,12.786631 1.80819,20.277789 0,11.365894 -6.32872,61.479149 -5.29547,84.210939 1.03328,22.73178 3.94207,57.39553 -0.90411,62.57699 -5.5125,5.89387 -16.20299,13.08378 -23.8942,14.91774 -51.60413,12.30494 -135.35745,4.13305 -159.12251,3.09978 -23.76503,-1.03326 -202.51954,-7.23284 -227.31785,-3.09978 -24.79831,4.13305 -201.48629,8.2661 -222.15157,8.2661 -20.66526,0 -139.4905,-9.29937 -165.32208,-8.2661 -25.83157,1.03326 -98.691873,5.65794 -113.65893,4.13305 -5.606826,-0.57124 -7.319675,-0.65094 -7.319675,-0.65094 l -8.322522,-0.94193 -7.0895888,-7.7065 c 0,0 4.1330518,-42.36379 2.0665258,-59.92926 C 8.2661042,119.85851 7.2328412,90.927146 8.2661042,71.295148 9.2993672,51.663152 21.698524,25.831576 16.532208,22.731787 11.365893,19.631998 17.277593,11.317513 21.633945,10.36492 Z"
       id="path4"
       sodipodi:nodetypes="ssssssssssssssscccssss" /><path
       style="fill:#502e0f;fill-opacity:1;stroke-width:0.264583"
       d="M 27.790202,43.391228 C 51.903758,36.706333 176.2676,38.747363 180.40066,38.747363 c 4.13305,0 189.86209,2.583159 198.12817,3.61642 8.26611,1.033264 78.52799,-2.066525 102.29305,-6.199576 23.76506,-4.133054 151.88967,-8.266105 187.02062,-4.133054 35.13093,4.133054 159.12251,6.199579 181.85429,5.166315 22.73178,-1.033261 59.92926,-7.23284 70.26187,-5.166315 10.33264,2.066526 8.94022,0.848423 12.97753,2.405644 2.71008,1.045304 5.13558,3.588084 7.1448,4.410039 2.00922,0.821957 -6.94094,1.278599 -6.94094,1.278599 0,0 -11.59873,1.18727 -14.88655,0.54797 -3.28781,-0.639299 -17.71771,1.735239 -24.01935,2.009225 -3.10359,0.134939 -68.02037,9.513284 -72.67006,8.996651 -4.64968,-0.516631 -123.97098,-11.10535 -132.23706,-11.10535 -8.26611,0 -70.1052,-0.03894 -75.01319,1.252638 -4.908,1.291576 -97.84438,9.319952 -108.69365,8.545003 -10.84927,-0.774946 -96.24859,2.99648 -113.05302,4.457737 -16.80443,1.461254 -127.49448,4.749078 -143.56826,1.826567 C 232.9251,53.733368 144.75308,55.537887 131.83729,57.862731 118.9215,60.187571 33.59947,55.340398 29.057603,53.341975 22.59971,50.500501 20.438608,49.209151 20.438608,49.209151 c 0,0 4.368277,-4.990872 7.351594,-5.817923 z"
       id="path2" /><path
       style="fill:#502e0f;fill-opacity:1;stroke-width:0.264583"
       d="m 20.312544,165.33669 v -5.29705 c 0,0 3.470482,-5.66236 10.228784,-5.29704 6.758302,0.36531 32.69557,5.84501 42.193719,6.94096 9.498173,1.09594 91.328433,5.66236 101.191903,1.64391 9.86346,-4.01845 68.13099,-5.47971 79.63838,-4.93174 11.50736,0.54797 56.44095,6.02767 70.68818,3.83579 14.24723,-2.19188 69.04428,-13.15129 89.13653,-12.42066 20.09224,0.73063 67.41964,6.47941 84.58938,5.74878 17.16977,-0.73063 98.06744,-2.09564 112.68,-0.26907 14.61255,1.82657 91.63532,15.16872 100.93468,14.39378 9.29937,-0.77495 65.92021,10.2807 84.00231,9.24744 18.0821,-1.03326 43.08905,-8.98913 56.52147,-12.86386 13.43242,-3.87474 33.32271,-5.68295 45.20525,-5.94127 11.88252,-0.25831 24.02338,3.87474 28.93137,4.77885 4.90799,0.9041 -4.52054,7.10368 -7.62032,7.362 -3.0998,0.25831 -25.31496,-0.25832 -31.12706,0.77494 -5.8121,1.03327 -29.57714,7.87863 -34.87261,10.84926 -5.29548,2.97063 -67.93707,6.97453 -75.55736,6.71621 -7.62031,-0.25831 -39.13483,-5.55379 -45.46359,-7.10368 -6.32873,-1.54989 -34.09767,-0.9041 -40.42642,-1.16242 -6.32873,-0.25832 -58.58609,-7.78142 -66.25768,-7.41611 -7.6716,0.36532 -59.32897,-1.09594 -69.7404,1.2786 -10.41146,2.37454 -55.585,-5.57057 -62.3433,-7.94511 -6.75831,-2.37454 -56.07563,-2.73985 -65.75645,-2.00922 -9.68081,0.73062 -46.94282,1.82656 -56.98894,4.2011 -10.04613,2.37454 -33.06088,6.57565 -42.55903,6.21034 -9.49817,-0.36532 -25.55517,0.008 -34.68801,-2.18428 -9.13286,-2.19188 -33.00202,-2.51826 -39.39499,-2.3356 -6.393,0.18266 -13.0114,-0.97976 -13.0114,-0.97976 0,0 -19.30432,-1.66987 -26.42794,0.33935 -7.12361,2.00923 -32.42047,0.0459 -39.72674,0.41121 -7.30627,0.36531 -43.28967,2.55719 -52.78782,4.20111 -9.49816,1.64391 -62.285991,1.82656 -69.409606,0.73062 -7.123618,-1.09594 -18.708772,-3.60788 -22.196033,-4.96404 -3.487264,-1.35616 -9.586257,-6.54334 -9.586257,-6.54334 z"
       id="path3" /><path
       style="fill:#502e0f;fill-opacity:1;stroke-width:0.264583"
       d="m 930.48205,101.5033 v -5.297053 c 0,0 -3.47048,-5.66236 -10.22878,-5.29704 -6.7583,0.36531 -32.69557,5.84501 -42.19372,6.94096 -9.49816,1.09594 -91.32842,5.662363 -101.19189,1.64391 -9.86346,-4.01845 -68.13099,-5.47971 -79.63838,-4.93174 -11.50736,0.54797 -56.44095,6.027673 -70.68818,3.83579 -14.24723,-2.19188 -69.04428,-13.151292 -89.13653,-12.42066 -20.09224,0.73063 -67.41964,6.47941 -84.58938,5.74878 -17.16977,-0.73063 -98.06744,-2.09564 -112.68,-0.26907 -14.61255,1.82657 -91.63532,15.168723 -100.93468,14.393783 -9.29937,-0.77495 -65.92021,10.2807 -84.00231,9.24744 -18.0821,-1.03326 -43.08905,-8.98913 -56.52147,-12.86386 -13.43242,-3.874743 -33.322718,-5.682953 -45.205258,-5.941273 -11.88252,-0.25831 -24.02338,3.874743 -28.93137,4.778853 -4.90799,0.9041 4.52054,7.10368 7.62032,7.362 3.0998,0.25831 25.31496,-0.25832 31.12706,0.77494 5.8121,1.03327 29.577148,7.87863 34.872618,10.84926 5.29548,2.97063 67.93707,6.97453 75.55736,6.71621 7.62031,-0.25831 39.13483,-5.55379 45.46359,-7.10368 6.32873,-1.54989 34.09767,-0.9041 40.42642,-1.16242 6.32873,-0.25832 58.58609,-7.78142 66.25768,-7.41611 7.6716,0.36532 59.32897,-1.09594 69.7404,1.2786 10.41146,2.37454 55.585,-5.57057 62.3433,-7.94511 6.75831,-2.37454 56.07563,-2.73985 65.75645,-2.00922 9.68081,0.73062 46.94282,1.82656 56.98894,4.2011 10.04613,2.37454 33.06088,6.57565 42.55903,6.21034 9.49817,-0.36532 25.55517,0.008 34.68801,-2.18428 9.13286,-2.19188 33.00202,-2.51826 39.39499,-2.3356 6.393,0.18266 13.0114,-0.97976 13.0114,-0.97976 0,0 19.30432,-1.66987 26.42794,0.33935 7.12361,2.00923 32.42047,0.0459 39.72674,0.41121 7.30627,0.36531 43.28967,2.55719 52.78782,4.20111 9.49816,1.64391 62.28598,1.82656 69.40959,0.73062 7.12362,-1.09594 18.70878,-3.60788 22.19604,-4.96404 3.48726,-1.35616 9.58625,-6.54334 9.58625,-6.54334 z"
       id="path3-4" /></g><path
     style="fill:#522f0f;fill-opacity:0.159763;stroke-width:0.264583"
     d="m 20.209116,175.51801 c 0.773457,-10.0295 -1.124482,-35.73125 5.82137,-38.63621 10.281527,-4.30004 65.889675,5.7675 77.857014,11.10676 13.05854,5.82611 49.71038,35.71784 34.98137,38.66364 -14.72901,2.9458 -43.245706,4.29684 -58.711156,4.29684 -15.46545,0 -24.40755,-3.91329 -39.13653,-5.34918 -14.82352,-1.44511 -21.962682,4.83828 -20.812068,-10.08185 z"
     id="path8"
     sodipodi:nodetypes="sssssss" /><path
     style="fill:url(#radialGradient2);stroke-width:0.264583"
     d="m 19.226798,183.34684 c 0,0 25.623127,-5.31801 32.391502,-3.38419 6.768372,1.93383 60.91536,8.21874 75.41902,6.28492 14.50366,-1.93382 31.90805,-6.28492 57.53118,-5.318 25.62312,0.96691 46.4117,9.6691 69.13409,10.63601 22.7224,0.96691 42.0606,-2.41727 56.08082,-3.86764 14.02019,-1.45037 40.12679,-2.41728 52.21316,0 12.08638,2.41727 66.98674,-3.57065 73.27166,7.06536 6.28491,10.63602 -21.91411,12.92467 -26.29038,25.77093 -1.61786,4.74912 -3.38084,6.73563 -10.14923,12.05364 -6.76836,5.31801 -23.89066,20.27617 -35.01012,16.89199 -11.11948,-3.38418 -10.82879,1.55443 -20.18988,-11.53532 -5.20406,-7.27693 -8.58456,-8.34566 -21.2973,-8.98941 -27.10773,-1.3727 -25.59788,-7.44807 -43.00226,4.63831 -17.40439,12.08638 -13.12258,16.10195 -30.5729,13.49169 -10.77633,-1.61195 -10.35537,-0.46093 -32.27628,-9.62405 -33.58164,-14.03741 -28.41197,-11.93584 -58.3862,-2.7502 -29.97422,9.18566 -21.75548,12.56984 -52.21316,12.56984 -30.457684,0 -30.457684,3.86764 -43.994431,-2.41728 -13.536747,-6.28491 -8.236497,-13.20475 -29.490769,-10.63601 -13.907528,1.68083 -15.049558,0.9751 -19.525231,-4.90815 -4.4883831,-5.89996 -1.518545,-14.48435 -1.172238,-18.65844 0.465246,-5.60768 -3.7756283,-6.89836 2.50929,-16.56746 6.284918,-9.66911 5.019657,-10.74654 5.019657,-10.74654 z"
     id="path1"
     sodipodi:nodetypes="cssssssssssssssssssssssc" /><path
     style="fill:#502e0f;fill-opacity:0.0207101;stroke-width:0.264583"
     d="m 58.651696,39.127559 c 11.7832,-12.519655 55.970224,-25.039309 69.962774,-22.093507 13.99256,2.945799 80.27308,22.093507 84.69178,33.87671 4.4187,11.783202 -8.10096,36.086058 -28.72156,41.241208 -20.62061,5.15516 -61.12537,14.72901 -86.901134,4.4187 -25.77576,-10.3103 -41.24121,-25.039302 -43.45056,-36.086056 -2.20935,-11.046753 4.4187,-21.357055 4.4187,-21.357055 z"
     id="path5" /><path
     style="fill:#44240d;fill-opacity:0.10355;stroke-width:0.264583"
     d="m 613.94394,193.37842 c 30.20346,3.64524 54.67866,-2.60375 60.40689,-7.81123 5.72823,-5.20749 20.3092,-19.78846 12.49799,-30.72419 -7.81124,-10.93573 -18.22622,-19.78847 -33.32795,-17.18472 -15.10173,2.60375 -30.72418,3.1245 -42.18067,11.97723 -11.45646,8.85273 -17.18471,5.20749 -17.70546,18.22621 -0.52076,13.01873 -7.29049,20.82996 2.08301,24.4752 9.37347,3.64524 18.22619,1.0415 18.22619,1.0415 z"
     id="path6" /><path
     style="fill:#502e0f;fill-opacity:0.272189;stroke-width:0.264583"
     d="m 845.1671,69.814031 c 28.12045,-1.041498 41.65994,-9.373481 40.61844,-22.912953 -1.04151,-13.539473 -15.62248,-17.705464 -35.41094,-19.78846 -19.78845,-2.082996 -40.61841,-4.165991 -48.9504,8.331983 -8.33199,12.497975 -19.78845,24.995949 -10.41498,37.493924 9.37348,12.497974 15.62248,11.456476 27.07894,13.539472 11.45649,2.082996 27.07894,-16.663966 27.07894,-16.663966 z"
     id="path7" /><path
     style="fill:#502e0f;fill-opacity:0.0976332;stroke-width:0.264583"
     d="m 360.42832,60.053304 c -28.12045,-1.041498 -41.65994,-9.373481 -40.61844,-22.912953 1.04151,-13.539473 15.62248,-17.705464 35.41094,-19.78846 19.78845,-2.082996 40.61841,-4.165991 48.9504,8.331983 8.33199,12.497975 19.78845,24.995949 10.41498,37.493924 -9.37348,12.497974 -15.62248,11.456476 -27.07894,13.539472 -11.45649,2.082996 -27.07894,-16.663966 -27.07894,-16.663966 z"
     id="path7-9" /><path
     style="fill:url(#radialGradient10);stroke-width:0.264583"
     d="M 908.41135,65.912296 C 891.10477,60.020692 884.1085,53.760868 876.37576,44.923464 868.64304,36.086061 865.69725,20.988832 871.58884,15.09723 877.48045,9.2056277 891.47299,2.945801 899.20573,2.945801 c 7.73274,0 15.83367,1.8411256 25.03932,0.7364502 9.20562,-1.1046754 17.30658,-4.05047632 22.82994,-1.1046754 5.52339,2.945801 14.36079,3.6822512 13.62432,14.3607792 -0.73644,10.678528 3.68226,24.671084 -4.78692,27.616883 -8.46918,2.945802 -18.77949,8.100952 -25.77576,12.151429 -6.99627,4.050477 -21.72528,9.205629 -21.72528,9.205629 z"
     id="path9" /></svg>
