<?xml version="1.0" encoding="UTF-8" standalone="no"?>
<!-- Uploaded to: SVG Repo, www.svgrepo.com, Generator: SVG Repo Mixer Tools -->

<svg
   fill="#000000"
   height="450"
   width="1300"
   version="1.1"
   id="Layer_1"
   viewBox="0 0 832 288"
   xml:space="preserve"
   sodipodi:docname="submarine.svg"
   inkscape:version="1.3.2 (091e20e, 2023-11-25, custom)"
   xmlns:inkscape="http://www.inkscape.org/namespaces/inkscape"
   xmlns:sodipodi="http://sodipodi.sourceforge.net/DTD/sodipodi-0.dtd"
   xmlns:xlink="http://www.w3.org/1999/xlink"
   xmlns="http://www.w3.org/2000/svg"
   xmlns:svg="http://www.w3.org/2000/svg"><defs
   id="defs2"><linearGradient
     id="linearGradient3"
     inkscape:collect="always"><stop
       style="stop-color:#e0bf00;stop-opacity:1;"
       offset="0"
       id="stop3" /><stop
       style="stop-color:#eba200;stop-opacity:0;"
       offset="1"
       id="stop4" /></linearGradient><linearGradient
     inkscape:collect="always"
     xlink:href="#linearGradient3"
     id="linearGradient4"
     x1="349.2373"
     y1="149.88802"
     x2="854.22113"
     y2="149.88802"
     gradientUnits="userSpaceOnUse"
     gradientTransform="matrix(0.87077826,0,0,0.38738125,55.168269,-0.4110959)" /></defs><sodipodi:namedview
   id="namedview2"
   pagecolor="#ffffff"
   bordercolor="#000000"
   borderopacity="0.25"
   inkscape:showpageshadow="2"
   inkscape:pageopacity="0.0"
   inkscape:pagecheckerboard="0"
   inkscape:deskcolor="#d1d1d1"
   inkscape:zoom="1.02"
   inkscape:cx="700"
   inkscape:cy="246.56863"
   inkscape:window-width="2560"
   inkscape:window-height="1369"
   inkscape:window-x="-8"
   inkscape:window-y="-8"
   inkscape:window-maximized="1"
   inkscape:current-layer="Layer_1" />

<path
   style="fill:url(#linearGradient4);stroke-width:0.371709"
   d="M 799.00545,5.6771231 359.2765,57.42878 797.18461,109.6283"
   id="path3" /><g
   id="g2"
   transform="translate(3.7647059,-88.470588)">
	<g
   id="g1">
		<path
   d="M 469.333,251.733 H 396.8 l -23.04,-30.72 c -1.613,-2.15 -4.147,-3.413 -6.827,-3.413 H 358.4 v -51.2 c 0,-4.702 3.823,-8.533 8.533,-8.533 4.719,0 8.533,-3.823 8.533,-8.533 0,-4.71 -3.814,-8.533 -8.533,-8.533 -14.114,0 -25.6,11.486 -25.6,25.6 v 51.2 h -17.067 v -17.067 c 0,-4.71 -3.814,-8.533 -8.533,-8.533 -4.719,0 -8.533,3.823 -8.533,8.533 V 217.6 h -34.133 c -2.68,0 -5.214,1.263 -6.827,3.413 l -23.04,30.72 h -81.067 c -0.777,0 -1.545,0.102 -2.287,0.316 l -65.98,18.33 V 243.2 c 0,-4.71 -3.814,-8.533 -8.533,-8.533 H 51.2 c -4.173,0 -7.731,3.021 -8.414,7.125 l -7.475,44.843 -18.244,5.077 v -5.845 c 0,-4.71 -3.814,-8.533 -8.533,-8.533 -4.719,0 -8.534,3.822 -8.534,8.533 V 320 c 0,4.71 3.814,8.533 8.533,8.533 4.719,0 8.533,-3.823 8.533,-8.533 v -5.845 l 18.244,5.069 7.475,44.843 c 0.683,4.113 4.241,7.134 8.414,7.134 h 34.133 c 4.719,0 8.533,-3.823 8.533,-8.533 v -27.179 l 65.98,18.33 c 0.742,0.213 1.51,0.316 2.287,0.316 h 307.2 c 23.526,0 42.667,-22.963 42.667,-51.2 C 512,274.697 492.86,251.733 469.333,251.733 Z"
   id="path1"
   inkscape:label="path1"
   style="fill:#004a59;fill-opacity:1" />
	</g>
</g></svg>
