<?xml version="1.0" encoding="UTF-8" standalone="no"?>
<svg
   width="190.05043mm"
   height="194.09801mm"
   viewBox="0 0 190.05043 194.09801"
   version="1.1"
   id="svg5"
   sodipodi:docname="logo.svg"
   inkscape:version="1.1.2 (b8e25be833, 2022-02-05)"
   xmlns:inkscape="http://www.inkscape.org/namespaces/inkscape"
   xmlns:sodipodi="http://sodipodi.sourceforge.net/DTD/sodipodi-0.dtd"
   xmlns="http://www.w3.org/2000/svg"
   xmlns:svg="http://www.w3.org/2000/svg">
  <sodipodi:namedview
     id="namedview6"
     pagecolor="#5c5c5c"
     bordercolor="#666666"
     borderopacity="1.0"
     inkscape:pageshadow="2"
     inkscape:pageopacity="0"
     inkscape:pagecheckerboard="0"
     inkscape:document-units="mm"
     showgrid="false"
     inkscape:zoom="1.1900238"
     inkscape:cx="312.59879"
     inkscape:cy="312.59879"
     inkscape:window-width="2560"
     inkscape:window-height="1369"
     inkscape:window-x="-8"
     inkscape:window-y="-8"
     inkscape:window-maximized="1"
     inkscape:current-layer="layer1" />
  <defs
     id="defs2">
    <inkscape:path-effect
       effect="join_type"
       id="path-effect864"
       is_visible="true"
       lpeversion="1"
       linecap_type="round"
       line_width="1"
       linejoin_type="extrp_arc"
       miter_limit="100"
       attempt_force_join="false" />
  </defs>
  <g
     id="layer1"
     transform="translate(-62.149913,-7.0539882)"
     style="fill:#000000;fill-opacity:1">
    <path
       id="path7957"
       style="fill:#000000;fill-opacity:1;stroke:none;stroke-width:0.26165;stroke-opacity:1"
       d="m 169.0045,7.0539882 c -5.57357,0.03168 -11.13612,0.499405 -16.63672,1.3988809 0.0331,0.5193842 0.0499,1.0396746 0.0506,1.5601119 -8e-5,8.369378 -4.11002,15.77483 -10.41745,20.321755 -0.0169,0.0053 -0.0343,0.0096 -0.0512,0.01498 -3.26699,2.345335 -7.11481,3.917508 -11.29389,4.465362 -0.0164,0.0078 -0.0322,0.01643 -0.0486,0.02429 -1.05823,0.136363 -2.13495,0.214468 -3.2303,0.214455 -7.34733,-0.0066 -14.32103,-3.239757 -19.07377,-8.84287 -9.946404,6.969998 -18.631719,15.584713 -25.682669,25.473896 5.24923,4.746836 8.244718,11.493235 8.245491,18.570442 1.5e-5,1.198914 -0.08928,2.376577 -0.25218,3.530534 -0.01122,0.02183 -0.02395,0.04276 -0.03514,0.06459 -0.630219,4.371393 -2.379666,8.371769 -4.963004,11.707813 -0.0058,0.01709 -0.01074,0.03459 -0.01654,0.05168 -4.581554,5.891789 -11.73249,9.686671 -19.773988,9.686748 -0.59402,-0.0011 -1.187814,-0.02326 -1.780253,-0.06667 -1.178462,6.158494 -1.812568,12.408774 -1.894974,18.678444 0.03628,5.65434 0.521325,11.29686 1.450557,16.87443 0.61578,-0.0459 1.233046,-0.069 1.850533,-0.0693 7.93721,8e-5 15.006901,3.69703 19.59467,9.45834 0.003,0.009 0.0053,0.019 0.0083,0.0284 2.501257,3.14812 4.265459,6.90594 5.020881,11.01948 0.01304,0.0712 0.02582,0.14251 0.03824,0.21394 0.09754,0.55869 0.179705,1.12243 0.239262,1.69344 7.94e-4,0.001 0.0019,0.003 0.0026,0.004 0.08978,0.86234 0.136954,1.73751 0.136943,2.62361 -0.006,7.39758 -3.282534,14.41397 -8.950875,19.1673 6.783305,9.60851 15.106441,18.03116 24.633636,24.9282 4.75184,-5.52167 11.67266,-8.70032 18.9575,-8.70697 1.03663,2e-5 2.05668,0.0688 3.06028,0.19121 12.03894,6.25465 25.7004,9.81749 40.20736,9.81749 12.21868,0 23.84981,-2.51053 34.41185,-7.03678 3.99544,1.99177 8.39586,3.03679 12.8602,3.05407 15.79333,-0.009 28.69156,-12.62352 29.05249,-28.41273 -2.72723,1.92063 -6.41074,3.44762 -10.40143,5.07514 -10.12512,4.1293 -18.95864,7.02773 -22.83737,-3.56671 -3.87873,-10.59443 3.70454,-14.39101 13.82965,-18.52031 4.16191,-1.69734 8.00849,-3.23916 11.4055,-3.70985 -5.48707,-5.75932 -13.0941,-9.01919 -21.04884,-9.02012 -14.62131,0.0157 -26.95689,10.8864 -28.81116,25.38966 -16.9093,2.18287 -36.59946,-3.42847 -47.06586,-17.77979 -13.05041,-17.89445 -11.24499,-41.76464 3.34191,-55.11447 1.88337,5.836422 5.66439,13.00873 13.23744,21.05557 11.63396,-12.36185 14.3308,-22.626431 14.87139,-29.142396 5.39025,0.558081 8.19232,1.802911 16.46101,7.359756 11.47699,7.712932 28.64736,23.32345 47.29686,23.56652 3.25524,0.0424 5.90059,-1.43785 6.78149,-3.83594 0.8809,-2.39809 -0.38081,-5.20739 -2.91816,-6.66833 -8.68408,-5.000041 -28.97584,-14.881713 -35.41076,-30.662209 23.16419,16.129556 31.56434,21.935964 44.84377,19.895944 3.75521,-0.576884 4.4106,-4.165634 3.58324,-6.764446 -8.14999,-25.600093 -28.4484,-45.813135 -53.76519,-54.883988 -5.59177,-4.592579 -9.15973,-11.559318 -9.15965,-19.360058 0.005,-1.033028 0.0745,-2.064739 0.20723,-3.089217 C 182.52138,7.7021401 175.7707,7.0567311 169.0045,7.0539882 Z m 38.02868,44.2164228 c 1.46127,0.05014 2.86346,0.524777 4.03955,1.367359 3.38796,2.427366 4.09616,7.240135 1.58181,10.749729 -0.17264,0.238027 -0.35811,0.466455 -0.55552,0.684197 -1.40631,-1.606434 -3.13434,-3.15776 -5.03845,-4.523237 -2.37917,-1.703888 -4.93366,-3.046842 -7.33289,-3.855064 0.18974,-0.3819 0.40958,-0.748477 0.65733,-1.096055 1.54942,-2.162604 4.05421,-3.41607 6.64817,-3.326929 z m -37.91138,9.153445 c 12.01396,0 20.12078,3.25373 29.02407,9.135878 4.5223,21.073284 29.73647,32.577226 38.72528,37.752736 1.32657,0.76379 1.32508,1.3731 1.16014,1.82211 -0.16494,0.44901 -0.87282,1.24229 -2.97501,1.21491 -16.38119,-0.2135 -33.15817,-14.848573 -45.1187,-22.886458 -8.54236,-5.74076 -12.49164,-7.424841 -18.54253,-8.040852 -0.0216,-0.795186 -0.0613,-1.473245 -0.0863,-2.007629 -0.34689,-7.414731 -2.86764,-15.028905 -3.55017,-16.973124 0.45296,-0.01132 0.90753,-0.01757 1.36322,-0.01757 z m -26.11469,6.805787 c -0.72798,3.01167 -1.40004,6.619867 -1.56682,10.184908 -0.0849,1.815574 -0.32972,5.208056 0.56792,9.779765 -17.61708,14.499634 -20.04463,41.768044 -5.44411,61.787954 7.17522,9.83852 18.01618,15.83062 29.54652,18.4056 -28.16028,-1.56252 -50.51579,-24.88677 -50.51578,-53.43757 0,-20.076298 11.0597,-37.560525 27.41227,-46.720657 z" />
  </g>
</svg>
