<svg id="visual" viewBox="0 0 1100 75" width="1100" height="75" xmlns="http://www.w3.org/2000/svg" xmlns:xlink="http://www.w3.org/1999/xlink" version="1.1"><rect x="0" y="0" width="1100" height="75" fill="#03101f"></rect><path d="M0 10L100 18L200 24L300 29L400 15L500 27L600 16L700 31L800 34L900 11L1000 9L1100 12L1100 76L1000 76L900 76L800 76L700 76L600 76L500 76L400 76L300 76L200 76L100 76L0 76Z" fill="#4f4f4f"></path><path d="M0 31L100 39L200 36L300 40L400 36L500 34L600 42L700 24L800 30L900 45L1000 35L1100 25L1100 76L1000 76L900 76L800 76L700 76L600 76L500 76L400 76L300 76L200 76L100 76L0 76Z" fill="#3c3c3c"></path><path d="M0 41L100 49L200 46L300 58L400 43L500 44L600 45L700 53L800 37L900 48L1000 55L1100 40L1100 76L1000 76L900 76L800 76L700 76L600 76L500 76L400 76L300 76L200 76L100 76L0 76Z" fill="#2a2a2a"></path><path d="M0 63L100 60L200 53L300 62L400 59L500 58L600 65L700 66L800 55L900 64L1000 51L1100 62L1100 76L1000 76L900 76L800 76L700 76L600 76L500 76L400 76L300 76L200 76L100 76L0 76Z" fill="#191919"></path></svg>