<svg id="visual" viewBox="0 0 1200 150" width="1200" height="150" xmlns="http://www.w3.org/2000/svg" xmlns:xlink="http://www.w3.org/1999/xlink" version="1.1"><path d="M0 13L60 9L120 25L180 16L240 28L300 9L360 12L420 21L480 12L540 12L600 24L660 18L720 24L780 13L840 30L900 21L960 13L1020 30L1080 27L1140 16L1200 27L1200 0L1140 0L1080 0L1020 0L960 0L900 0L840 0L780 0L720 0L660 0L600 0L540 0L480 0L420 0L360 0L300 0L240 0L180 0L120 0L60 0L0 0Z" fill="#03101f"></path><path d="M0 34L60 42L120 57L180 39L240 48L300 21L360 40L420 51L480 54L540 24L600 58L660 64L720 55L780 31L840 64L900 34L960 33L1020 57L1080 51L1140 39L1200 61L1200 25L1140 14L1080 25L1020 28L960 11L900 19L840 28L780 11L720 22L660 16L600 22L540 10L480 10L420 19L360 10L300 7L240 26L180 14L120 23L60 7L0 11Z" fill="#19212c"></path><path d="M0 82L60 88L120 106L180 58L240 75L300 54L360 64L420 94L480 94L540 81L600 86L660 106L720 84L780 55L840 102L900 61L960 51L1020 82L1080 72L1140 70L1200 99L1200 59L1140 37L1080 49L1020 55L960 31L900 32L840 62L780 29L720 53L660 62L600 56L540 22L480 52L420 49L360 38L300 19L240 46L180 37L120 55L60 40L0 32Z" fill="#2c3139"></path><path d="M0 114L60 104L120 133L180 81L240 93L300 64L360 76L420 117L480 117L540 97L600 104L660 118L720 91L780 86L840 115L900 76L960 82L1020 102L1080 85L1140 96L1200 129L1200 97L1140 68L1080 70L1020 80L960 49L900 59L840 100L780 53L720 82L660 104L600 84L540 79L480 92L420 92L360 62L300 52L240 73L180 56L120 104L60 86L0 80Z" fill="#404246"></path><path d="M0 151L60 151L120 151L180 151L240 151L300 151L360 151L420 151L480 151L540 151L600 151L660 151L720 151L780 151L840 151L900 151L960 151L1020 151L1080 151L1140 151L1200 151L1200 127L1140 94L1080 83L1020 100L960 80L900 74L840 113L780 84L720 89L660 116L600 102L540 95L480 115L420 115L360 74L300 62L240 91L180 79L120 131L60 102L0 112Z" fill="#545454"></path></svg>